<svg width="333" height="13" viewBox="0 0 333 13" fill="none" xmlns="http://www.w3.org/2000/svg">
<path fill-rule="evenodd" clip-rule="evenodd" d="M163 3.6937L153.357 9.67343L153 9.68553L156.063 0.000488281L158.137 0.287432L156.339 5.6835L162.878 1.80546H163H163.122L165.155 3.01086L164.442 4.5531L163 3.6937ZM163.065 13.0003L162.849 12.9997L159.588 6.34922L161.34 5.30679L162.98 8.78924L164.924 4.84359L164.922 4.84241L165.654 3.30726L169.661 5.6835L167.863 0.287432L169.937 0.000488281L173 9.68553L172.643 9.67343L166.638 5.91642L163.065 13.0003Z" fill="#0075FF"/>
<path fill-rule="evenodd" clip-rule="evenodd" d="M0.00012207 1H143V3.00013H0.00012207V1Z" fill="#0075FF"/>
<path fill-rule="evenodd" clip-rule="evenodd" d="M182 1.00005H331V3.00018H182V1.00005Z" fill="#0075FF"/>
</svg>
