<svg width="38" height="38" viewBox="0 0 38 38" fill="none" xmlns="http://www.w3.org/2000/svg">
<g opacity="0.8">
<path fill-rule="evenodd" clip-rule="evenodd" d="M0 10.6989C0 4.79036 4.78949 0 10.6989 0H27.3003C27.3006 0 27.3009 0 27.3011 0C33.21 0.000415325 38 4.7897 38 10.6989V27.3003C38 33.2097 33.2097 38 27.3003 38H10.6996C4.79042 38 0 33.2106 0 27.3011V10.6989ZM27.3003 2H10.6989C5.89416 2 2 5.89483 2 10.6989V27.3011C2 32.1058 5.89478 36 10.6996 36H27.3003C32.1051 36 36 32.1051 36 27.3003V10.6989C36 5.89447 32.1056 2.00042 27.3011 2C27.3009 2 27.3006 2 27.3003 2Z" fill="white"/>
<path fill-rule="evenodd" clip-rule="evenodd" d="M18.9999 11.3105C14.7529 11.3105 11.3101 14.7534 11.3101 19.0004C11.3101 23.2473 14.7529 26.6902 18.9999 26.6902C23.2468 26.6902 26.6897 23.2473 26.6897 19.0004C26.6897 14.7534 23.2468 11.3105 18.9999 11.3105ZM9.31006 19.0004C9.31006 13.6488 13.6483 9.31055 18.9999 9.31055C24.3514 9.31055 28.6897 13.6488 28.6897 19.0004C28.6897 24.3519 24.3514 28.6902 18.9999 28.6902C13.6483 28.6902 9.31006 24.3519 9.31006 19.0004Z" fill="white"/>
<path d="M29.5518 10.3097C30.5801 10.3097 31.4137 9.47611 31.4137 8.44782C31.4137 7.41953 30.5801 6.58594 29.5518 6.58594C28.5235 6.58594 27.6899 7.41953 27.6899 8.44782C27.6899 9.47611 28.5235 10.3097 29.5518 10.3097Z" fill="white"/>
</g>
</svg>
