<svg width="70" height="70" viewBox="0 0 70 70" fill="none" xmlns="http://www.w3.org/2000/svg">
<path d="M58.8232 19.4802H54.4626V11.5371C54.4626 10.8658 53.9161 10.3214 53.2422 10.3214C52.5683 10.3214 52.0219 10.8658 52.0219 11.5371V19.4802H47.5637C46.8931 19.4888 46.3521 20.0278 46.3434 20.6959V49.8736C46.3434 50.545 46.8893 51.0893 47.5637 51.0893H51.9733V58.4484H51.9728C51.9728 59.1197 52.5192 59.6641 53.1931 59.6641C53.8676 59.6641 54.4135 59.1197 54.4135 58.4484V51.1214H58.8231C59.497 51.1214 60.0434 50.5776 60.0434 49.9057V20.728C60.0478 20.4012 59.9219 20.0865 59.6931 19.8525C59.4643 19.6181 59.151 19.4846 58.8231 19.4802L58.8232 19.4802ZM57.6028 48.6579H48.7842V21.9116H57.6034L57.6028 48.6579Z" fill="#5FC6C1"/>
<path d="M40.5668 23.0955H36.1572V11.5378C36.1572 10.8664 35.6107 10.322 34.9368 10.322C34.2629 10.322 33.7165 10.8664 33.7165 11.5378V23.0955H29.3069C28.633 23.0955 28.0865 23.6398 28.0865 24.3112V53.4889C28.0953 54.1565 28.6368 54.6959 29.3069 54.7046H33.7165V58.449C33.7165 59.1203 34.2629 59.6647 34.9368 59.6647C35.6107 59.6647 36.1572 59.1203 36.1572 58.449V54.7371H40.5668C41.2369 54.7285 41.7784 54.189 41.7871 53.5214V24.3437C41.7958 24.0153 41.6711 23.6979 41.4412 23.4628C41.2113 23.2278 40.8958 23.0955 40.5668 23.0955ZM39.3464 52.2732H30.5273V25.5269H39.3464V52.2732Z" fill="#5FC6C1"/>
<path d="M22.3089 20.032H17.8999V11.5381C17.8999 10.8668 17.3534 10.3224 16.6795 10.3224C16.0051 10.3224 15.4592 10.8668 15.4592 11.5381V20.032H11.0496C10.3757 20.032 9.82922 20.5764 9.82922 21.2478V50.4255C9.83794 51.0936 10.3789 51.6325 11.0496 51.6412H15.4102V58.4493C15.4102 59.1207 15.9566 59.6651 16.6306 59.6651C17.3045 59.6651 17.8509 59.1207 17.8509 58.4493V51.6412H22.2605C22.9306 51.6325 23.4721 51.0936 23.4808 50.4255V21.2478C23.4814 20.5949 22.9637 20.0581 22.3089 20.032ZM21.0885 49.2097H12.2699V22.4635H21.0891L21.0885 49.2097Z" fill="#5FC6C1"/>
</svg>
