<svg width="70" height="70" viewBox="0 0 70 70" fill="none" xmlns="http://www.w3.org/2000/svg">
<path fill-rule="evenodd" clip-rule="evenodd" d="M42.8694 40.08C43.0561 41.6131 42.6475 43.0087 41.6894 44.1176C40.4348 45.5675 38.2601 46.4945 35.8067 46.6617V49.0128C35.8067 49.4637 35.4408 49.8296 34.9895 49.8296C34.5386 49.8296 34.1727 49.4637 34.1727 49.0128V46.6524C31.1093 46.3741 27.9646 44.6601 27.0892 41.1494C26.9802 40.711 27.2457 40.269 27.6841 40.1592C28.1238 40.0499 28.5644 40.3166 28.6747 40.7541C29.439 43.821 32.5121 45.1336 35.2602 45.062C36.964 45.0216 39.224 44.4716 40.4538 43.0501C41.1123 42.2885 41.3786 41.3566 41.2479 40.2767C40.9473 37.798 38.9817 36.3921 34.8779 35.7185C30.3397 34.9728 27.9593 32.9881 27.8054 29.8198C27.6578 26.796 29.7972 24.2572 33.1291 23.5014C33.4666 23.4249 33.8169 23.3737 34.1735 23.3386V20.9715C34.1735 20.5206 34.5394 20.1556 34.9903 20.1556C35.4416 20.1556 35.8075 20.5206 35.8075 20.9715V23.331C38.3792 23.56 41.0015 24.9343 42.2659 27.9447C42.4407 28.3609 42.2459 28.8393 41.8302 29.0136C41.4127 29.1888 40.9356 28.9931 40.7605 28.5774C39.4088 25.358 36.0449 24.5154 33.4915 25.0935C31.5388 25.5363 29.3046 27.0196 29.4366 29.7406C29.55 32.0659 31.4174 33.494 35.1428 34.1062C36.9106 34.3956 42.2865 35.2792 42.8694 40.08ZM34.9904 52.7586C44.7879 52.7586 52.7578 44.7885 52.7578 34.9922C52.7578 25.1938 44.7877 17.2236 34.9904 17.2236C25.1938 17.2236 17.2229 25.1937 17.2229 34.9911C17.2229 44.7885 25.1939 52.7586 34.9904 52.7586ZM34.9904 15.5903C24.2925 15.5903 15.5895 24.2936 15.5895 34.9911C15.5895 45.6889 24.292 54.3919 34.9904 54.3919C45.6887 54.3919 54.3912 45.6886 54.3912 34.9911C54.3912 24.2936 45.6883 15.5903 34.9904 15.5903ZM63.5674 37.3677V32.6143L59.168 30.9198C58.9057 30.8198 58.7145 30.5904 58.6603 30.3156C58.0436 27.1739 56.8218 24.2297 55.0318 21.5625C54.8753 21.3295 54.849 21.0325 54.9633 20.7755L56.8787 16.4632L53.5179 13.1024L49.2034 15.0178C48.9473 15.1312 48.6498 15.1063 48.4173 14.9493C45.7509 13.1585 42.8063 11.9384 39.6655 11.3213C39.3907 11.267 39.1617 11.0754 39.0613 10.8135L37.3677 6.41412H32.6143L30.9194 10.8154C30.8194 11.0777 30.5899 11.2689 30.3152 11.3231C27.1748 11.9393 24.2306 13.1598 21.5633 14.9511C21.3308 15.1076 21.0334 15.133 20.7773 15.0196L16.4628 13.1042L13.102 16.465L15.0187 20.7786C15.1321 21.0347 15.1063 21.3317 14.9503 21.5647C13.1589 24.2311 11.9384 27.1753 11.3217 30.3165C11.2675 30.5913 11.0768 30.8203 10.8144 30.9207L6.41412 32.6143V37.3677L10.8135 39.0621C11.0759 39.1622 11.267 39.3903 11.3213 39.6664C11.938 42.8076 13.1597 45.7523 14.9498 48.4194C15.1063 48.652 15.1325 48.9494 15.0183 49.2051L13.1029 53.5183L16.4637 56.8791L20.7782 54.9628C21.0343 54.8495 21.3317 54.8752 21.5642 55.0313C24.2306 56.8226 27.1753 58.0431 30.3161 58.6584C30.5908 58.7127 30.8198 58.9043 30.9203 59.1662L32.6152 63.5674H37.3686L39.0635 59.1688C39.1636 58.9065 39.3916 58.7153 39.6678 58.6611C42.809 58.0444 45.7537 56.8226 48.42 55.0326C48.6526 54.8761 48.95 54.8511 49.2061 54.9641L53.5193 56.8795L56.8801 53.5187L54.9639 49.2042C54.8505 48.9481 54.8763 48.6506 55.0323 48.4181C56.8236 45.7517 58.0441 42.8071 58.6595 39.6663C58.7137 39.3915 58.9053 39.1625 59.1681 39.062L63.5674 37.3677ZM64.6776 31.2911L60.1715 29.5562C59.5188 26.5146 58.3316 23.6504 56.6372 21.0313L58.5983 16.6144C58.7366 16.3059 58.6681 15.9444 58.4298 15.7057L54.2763 11.5512C54.0366 11.3129 53.6756 11.2453 53.3675 11.3818L48.9494 13.3443C46.3292 11.6498 43.4664 10.4628 40.4257 9.81048L38.6908 5.30293C38.569 4.98859 38.2653 4.78052 37.9283 4.78052H32.0541C31.7162 4.78052 31.4134 4.98815 31.2911 5.30383L29.5563 9.81138C26.5155 10.4632 23.6523 11.6507 21.0325 13.3452L16.6145 11.3827C16.305 11.2453 15.944 11.3129 15.7057 11.5521L11.5512 15.7066C11.3129 15.9458 11.2444 16.3068 11.3827 16.6153L13.3452 21.0326C11.6503 23.6519 10.4623 26.5156 9.81093 29.5564L5.30339 31.2912C4.9886 31.4126 4.78052 31.7154 4.78052 32.0533V37.9279C4.78052 38.2658 4.98815 38.5686 5.30293 38.6896L9.80911 40.4244C10.4618 43.4651 11.6489 46.3289 13.3434 48.9491L11.3822 53.3663C11.244 53.6744 11.3124 54.0364 11.5507 54.2747L15.7052 58.4292C15.9435 58.6675 16.3046 58.7346 16.614 58.5977L21.0321 56.6352C23.6523 58.3301 26.5151 59.5167 29.5558 60.1694L31.2907 64.677C31.4121 64.9922 31.7157 65.1994 32.0536 65.1994H37.9278C38.2657 65.1994 38.5685 64.9917 38.6899 64.677L40.4248 60.1708C43.4655 59.5181 46.3301 58.331 48.9494 56.6365L53.3667 58.5977C53.6748 58.7346 54.0358 58.6675 54.2755 58.4292L58.429 54.2747C58.6673 54.0364 58.7358 53.674 58.5975 53.3663L56.636 48.9491C58.3309 46.3289 59.5174 43.4661 60.1702 40.4253L64.6778 38.6905C64.993 38.5695 65.2002 38.2663 65.2002 37.9288V32.0542C65.2011 31.7154 64.993 31.4126 64.6778 31.2912L64.6776 31.2911Z" fill="#5FC6C1"/>
</svg>
