<svg width="74" height="68" viewBox="0 0 74 68" fill="none" xmlns="http://www.w3.org/2000/svg">
<path d="M68.6829 19.2562L60.3269 27.5812C59.4136 27.0056 58.3364 26.6681 57.1783 26.6681C55.5355 26.6681 54.0476 27.3405 52.9745 28.421L46.2698 24.2674C46.4799 23.6635 46.5996 23.0183 46.5996 22.3448C46.5996 19.0959 43.9464 16.4519 40.6848 16.4519C37.4233 16.4519 34.77 19.0954 34.77 22.3448C34.77 24.2804 35.7159 25.9951 37.1659 27.0698L31.5347 39.8096C31.1697 39.739 30.7931 39.6992 30.4076 39.6992C29.103 39.6992 27.8998 40.1278 26.9202 40.8431L20.5731 35.3446C21.0216 34.5147 21.2769 33.5666 21.2769 32.5598C21.2769 29.3109 18.6236 26.6669 15.3621 26.6669C12.1005 26.6669 9.44724 29.3104 9.44724 32.5598C9.44724 33.7136 9.78704 34.7868 10.3637 35.6968L3.53449 42.5008C3.02399 43.0094 3.02399 43.8345 3.53449 44.3432C3.78973 44.5975 4.12481 44.7252 4.45885 44.7252C4.7934 44.7252 5.12796 44.5975 5.3832 44.3432L12.2124 37.5392C13.1258 38.1148 14.2039 38.4528 15.3621 38.4528C16.6678 38.4528 17.8726 38.0237 18.8521 37.3063L25.1976 42.8043C24.748 43.6347 24.4922 44.5844 24.4922 45.5917C24.4922 48.8407 27.1455 51.4847 30.407 51.4847C33.6686 51.4847 36.3218 48.8412 36.3218 45.5917C36.3218 43.6557 35.3754 41.9398 33.9243 40.8651L39.5555 28.1263C39.9216 28.1969 40.2987 28.2367 40.6847 28.2367C42.3291 28.2367 43.8176 27.5633 44.8916 26.4807L51.5947 30.6333C51.3841 31.2376 51.2633 31.8844 51.2633 32.5594C51.2633 35.8084 53.9166 38.4524 57.1781 38.4524C60.4391 38.4524 63.093 35.8089 63.093 32.5594C63.093 31.4056 62.7532 30.3313 62.176 29.4214L70.5319 21.0964C71.0424 20.5877 71.0424 19.7631 70.5319 19.2539C70.0214 18.7474 69.1944 18.7476 68.6829 19.2562ZM15.3632 35.8492C13.5434 35.8492 12.0633 34.3746 12.0633 32.562C12.0633 30.7495 13.5434 29.2749 15.3632 29.2749C17.1824 29.2749 18.6625 30.7495 18.6625 32.562C18.6625 34.3746 17.1824 35.8492 15.3632 35.8492ZM30.4084 48.8815C28.5891 48.8815 27.109 47.4069 27.109 45.5944C27.109 43.7818 28.5891 42.3073 30.4084 42.3073C32.2276 42.3073 33.7077 43.7818 33.7077 45.5944C33.7077 47.4069 32.2276 48.8815 30.4084 48.8815ZM40.686 25.6336C38.8662 25.6336 37.3862 24.1591 37.3862 22.3465C37.3862 20.534 38.8662 19.0594 40.686 19.0594C42.5053 19.0594 43.9853 20.534 43.9853 22.3465C43.9853 24.1591 42.5053 25.6336 40.686 25.6336ZM57.1793 35.8493C55.36 35.8493 53.8799 34.3747 53.8799 32.5622C53.8799 30.7496 55.36 29.2751 57.1793 29.2751C58.0879 29.2751 58.9125 29.6434 59.5096 30.2373C59.5101 30.2379 59.5106 30.2384 59.5117 30.2384C60.1089 30.8333 60.4786 31.6554 60.4786 32.5606C60.4791 34.3748 58.9991 35.8493 57.1793 35.8493Z" fill="#5FC6C1"/>
</svg>
