<svg width="82" height="79" viewBox="0 0 82 79" fill="none" xmlns="http://www.w3.org/2000/svg">
<path d="M17.5694 71.0196H52.2587C52.268 71.0196 52.2772 71.0196 52.287 71.0191L52.8908 70.9966C57.1649 70.9685 60.6422 67.4335 60.6422 63.1174L60.6417 26.8343H71.5134C71.9454 26.8343 72.2956 26.4816 72.2956 26.0466V14.8274C72.2956 11.0715 69.27 8.01599 65.55 8.01599H65.4475H65.4469H65.4458L22.1942 8.03851C17.9196 8.06653 14.4429 11.6016 14.4429 15.9177V55.4339L10.5217 55.4344C10.0897 55.4344 9.7395 55.7871 9.7395 56.2222V63.1126C9.7395 67.4722 13.2521 71.0193 17.5699 71.0193L17.5694 71.0196ZM70.7308 14.8273V25.2594H60.6406V14.4307C60.6406 11.7625 62.7957 9.59158 65.4449 9.59102H65.5496C68.4066 9.59102 70.7308 11.9406 70.7308 14.8273ZM16.0055 15.9178C16.0055 12.464 18.7856 9.63601 22.1986 9.61351L61.2765 9.59318C59.932 10.7704 59.0773 12.5003 59.0773 14.4306V63.1174C59.0773 66.5712 56.2972 69.3992 52.857 69.4222L52.251 69.4442C48.7994 69.4404 45.9926 66.6013 45.9926 63.1125V56.2221C45.9926 55.787 45.6425 55.4344 45.2105 55.4344L16.006 55.4349L16.0055 15.9178ZM11.3021 57.009H44.4274V63.1117C44.4274 65.6991 45.6645 68.0004 47.573 69.444H17.5685C14.1131 69.444 11.3018 66.6033 11.3018 63.1117L11.3021 57.009Z" fill="#5FC6C1"/>
<path d="M23.4592 48.437H21.2136C20.7816 48.437 20.4314 48.7896 20.4314 49.2247C20.4314 49.6598 20.7816 50.0125 21.2136 50.0125H23.4592C23.8912 50.0125 24.2413 49.6598 24.2413 49.2247C24.2413 48.7896 23.8912 48.437 23.4592 48.437Z" fill="#269E96"/>
<path d="M29.589 48.437H27.3435C26.9115 48.437 26.5613 48.7896 26.5613 49.2247C26.5613 49.6598 26.9115 50.0125 27.3435 50.0125H29.589C30.021 50.0125 30.3712 49.6598 30.3712 49.2247C30.3712 48.7896 30.021 48.437 29.589 48.437Z" fill="#269E96"/>
<path d="M35.7204 48.437H33.4748C33.0428 48.437 32.6926 48.7896 32.6926 49.2247C32.6926 49.6598 33.0428 50.0125 33.4748 50.0125H35.7204C36.1524 50.0125 36.5026 49.6598 36.5026 49.2247C36.502 48.7896 36.1518 48.437 35.7204 48.437Z" fill="#269E96"/>
<path d="M41.8503 48.437H39.6047C39.1727 48.437 38.8225 48.7896 38.8225 49.2247C38.8225 49.6598 39.1727 50.0125 39.6047 50.0125H41.8503C42.2823 50.0125 42.6324 49.6598 42.6324 49.2247C42.6324 48.7896 42.2823 48.437 41.8503 48.437Z" fill="#269E96"/>
<path d="M47.9816 50.012C48.4136 50.012 48.7638 49.6593 48.7638 49.2242C48.7638 48.7891 48.4136 48.4365 47.9816 48.4365H45.736C45.304 48.4365 44.9539 48.7891 44.9539 49.2242C44.9539 49.6593 45.304 50.012 45.736 50.012H47.9816Z" fill="#269E96"/>
<path d="M51.8664 50.012H54.112C54.544 50.012 54.8942 49.6593 54.8942 49.2242C54.8942 48.7891 54.544 48.4365 54.112 48.4365H51.8664C51.4344 48.4365 51.0842 48.7891 51.0842 49.2242C51.0842 49.6593 51.4344 50.012 51.8664 50.012Z" fill="#269E96"/>
<path d="M23.4592 41.4391H21.2136C20.7816 41.4391 20.4314 41.7918 20.4314 42.2268C20.4314 42.6619 20.7816 43.0146 21.2136 43.0146H23.4592C23.8912 43.0146 24.2413 42.6619 24.2413 42.2268C24.2413 41.7918 23.8912 41.4391 23.4592 41.4391Z" fill="#269E96"/>
<path d="M29.589 41.4391H27.3435C26.9115 41.4391 26.5613 41.7918 26.5613 42.2268C26.5613 42.6619 26.9115 43.0146 27.3435 43.0146H29.589C30.021 43.0146 30.3712 42.6619 30.3712 42.2268C30.3712 41.7918 30.021 41.4391 29.589 41.4391Z" fill="#269E96"/>
<path d="M35.7204 41.4391H33.4748C33.0428 41.4391 32.6926 41.7918 32.6926 42.2268C32.6926 42.6619 33.0428 43.0146 33.4748 43.0146H35.7204C36.1524 43.0146 36.5026 42.6619 36.5026 42.2268C36.502 41.7918 36.1518 41.4391 35.7204 41.4391Z" fill="#269E96"/>
<path d="M41.8503 41.4391H39.6047C39.1727 41.4391 38.8225 41.7918 38.8225 42.2268C38.8225 42.6619 39.1727 43.0146 39.6047 43.0146H41.8503C42.2823 43.0146 42.6324 42.6619 42.6324 42.2268C42.6324 41.7918 42.2823 41.4391 41.8503 41.4391Z" fill="#269E96"/>
<path d="M45.7363 43.0142H47.9819C48.4139 43.0142 48.764 42.6615 48.764 42.2264C48.764 41.7913 48.4139 41.4387 47.9819 41.4387H45.7363C45.3043 41.4387 44.9541 41.7913 44.9541 42.2264C44.9541 42.6615 45.3043 43.0142 45.7363 43.0142Z" fill="#269E96"/>
<path d="M51.8664 43.0142H54.112C54.544 43.0142 54.8942 42.6615 54.8942 42.2264C54.8942 41.7913 54.544 41.4387 54.112 41.4387H51.8664C51.4344 41.4387 51.0842 41.7913 51.0842 42.2264C51.0842 42.6615 51.4344 43.0142 51.8664 43.0142Z" fill="#269E96"/>
<path d="M23.4592 34.4412H21.2136C20.7816 34.4412 20.4314 34.7939 20.4314 35.229C20.4314 35.6641 20.7816 36.0168 21.2136 36.0168H23.4592C23.8912 36.0168 24.2413 35.6641 24.2413 35.229C24.2413 34.7939 23.8912 34.4412 23.4592 34.4412Z" fill="#269E96"/>
<path d="M29.589 34.4412H27.3435C26.9115 34.4412 26.5613 34.7939 26.5613 35.229C26.5613 35.6641 26.9115 36.0168 27.3435 36.0168H29.589C30.021 36.0168 30.3712 35.6641 30.3712 35.229C30.3712 34.7939 30.021 34.4412 29.589 34.4412Z" fill="#269E96"/>
<path d="M35.7204 34.4412H33.4748C33.0428 34.4412 32.6926 34.7939 32.6926 35.229C32.6926 35.6641 33.0428 36.0168 33.4748 36.0168H35.7204C36.1524 36.0168 36.5026 35.6641 36.5026 35.229C36.502 34.7939 36.1518 34.4412 35.7204 34.4412Z" fill="#269E96"/>
<path d="M41.8503 34.4412H39.6047C39.1727 34.4412 38.8225 34.7939 38.8225 35.229C38.8225 35.6641 39.1727 36.0168 39.6047 36.0168H41.8503C42.2823 36.0168 42.6324 35.6641 42.6324 35.229C42.6324 34.7939 42.2823 34.4412 41.8503 34.4412Z" fill="#269E96"/>
<path d="M45.7363 36.0163H47.9819C48.4139 36.0163 48.764 35.6636 48.764 35.2286C48.764 34.7935 48.4139 34.4408 47.9819 34.4408H45.7363C45.3043 34.4408 44.9541 34.7935 44.9541 35.2286C44.9541 35.6642 45.3043 36.0163 45.7363 36.0163Z" fill="#269E96"/>
<path d="M51.8664 36.0163H54.112C54.544 36.0163 54.8942 35.6636 54.8942 35.2286C54.8942 34.7935 54.544 34.4408 54.112 34.4408H51.8664C51.4344 34.4408 51.0842 34.7935 51.0842 35.2286C51.0842 35.6642 51.4344 36.0163 51.8664 36.0163Z" fill="#269E96"/>
<path d="M23.4592 27.4434H21.2136C20.7816 27.4434 20.4314 27.796 20.4314 28.2311C20.4314 28.6662 20.7816 29.0189 21.2136 29.0189H23.4592C23.8912 29.0189 24.2413 28.6662 24.2413 28.2311C24.2413 27.796 23.8912 27.4434 23.4592 27.4434Z" fill="#269E96"/>
<path d="M29.589 27.4434H27.3435C26.9115 27.4434 26.5613 27.796 26.5613 28.2311C26.5613 28.6662 26.9115 29.0189 27.3435 29.0189H29.589C30.021 29.0189 30.3712 28.6662 30.3712 28.2311C30.3712 27.796 30.021 27.4434 29.589 27.4434Z" fill="#269E96"/>
<path d="M35.7204 27.4434H33.4748C33.0428 27.4434 32.6926 27.796 32.6926 28.2311C32.6926 28.6662 33.0428 29.0189 33.4748 29.0189H35.7204C36.1524 29.0189 36.5026 28.6662 36.5026 28.2311C36.502 27.796 36.1518 27.4434 35.7204 27.4434Z" fill="#269E96"/>
<path d="M41.8503 27.4434H39.6047C39.1727 27.4434 38.8225 27.796 38.8225 28.2311C38.8225 28.6662 39.1727 29.0189 39.6047 29.0189H41.8503C42.2823 29.0189 42.6324 28.6662 42.6324 28.2311C42.6324 27.796 42.2823 27.4434 41.8503 27.4434Z" fill="#269E96"/>
<path d="M45.7363 29.0199H47.9819C48.4139 29.0199 48.764 28.6672 48.764 28.2321C48.764 27.797 48.4139 27.4443 47.9819 27.4443H45.7363C45.3043 27.4443 44.9541 27.797 44.9541 28.2321C44.9541 28.6672 45.3043 29.0199 45.7363 29.0199Z" fill="#269E96"/>
<path d="M51.8664 29.0199H54.112C54.544 29.0199 54.8942 28.6672 54.8942 28.2321C54.8942 27.797 54.544 27.4443 54.112 27.4443H51.8664C51.4344 27.4443 51.0842 27.797 51.0842 28.2321C51.0842 28.6672 51.4344 29.0199 51.8664 29.0199Z" fill="#269E96"/>
<path d="M23.4592 20.447H21.2136C20.7816 20.447 20.4314 20.7997 20.4314 21.2348C20.4314 21.6699 20.7816 22.0225 21.2136 22.0225H23.4592C23.8912 22.0225 24.2413 21.6699 24.2413 21.2348C24.2413 20.7997 23.8912 20.447 23.4592 20.447Z" fill="#269E96"/>
<path d="M29.589 20.447H27.3435C26.9115 20.447 26.5613 20.7997 26.5613 21.2348C26.5613 21.6699 26.9115 22.0225 27.3435 22.0225H29.589C30.021 22.0225 30.3712 21.6699 30.3712 21.2348C30.3712 20.7997 30.021 20.447 29.589 20.447Z" fill="#269E96"/>
<path d="M35.7204 20.447H33.4748C33.0428 20.447 32.6926 20.7997 32.6926 21.2348C32.6926 21.6699 33.0428 22.0225 33.4748 22.0225H35.7204C36.1524 22.0225 36.5026 21.6699 36.5026 21.2348C36.502 20.7997 36.1518 20.447 35.7204 20.447Z" fill="#269E96"/>
<path d="M41.8503 20.447H39.6047C39.1727 20.447 38.8225 20.7997 38.8225 21.2348C38.8225 21.6699 39.1727 22.0225 39.6047 22.0225H41.8503C42.2823 22.0225 42.6324 21.6699 42.6324 21.2348C42.6324 20.7997 42.2823 20.447 41.8503 20.447Z" fill="#269E96"/>
<path d="M45.7363 22.0221H47.9819C48.4139 22.0221 48.764 21.6694 48.764 21.2343C48.764 20.7992 48.4139 20.4465 47.9819 20.4465H45.7363C45.3043 20.4465 44.9541 20.7992 44.9541 21.2343C44.9541 21.6694 45.3043 22.0221 45.7363 22.0221Z" fill="#269E96"/>
<path d="M51.8664 22.0221H54.112C54.544 22.0221 54.8942 21.6694 54.8942 21.2343C54.8942 20.7992 54.544 20.4465 54.112 20.4465H51.8664C51.4344 20.4465 51.0842 20.7992 51.0842 21.2343C51.0842 21.6694 51.4344 22.0221 51.8664 22.0221Z" fill="#269E96"/>
</svg>
