<svg width="580" height="350" viewBox="0 0 580 350" fill="none" xmlns="http://www.w3.org/2000/svg">
<g clip-path="url(#clip0_4725_329)">
<path d="M30.261 348.72C30.2222 348.549 26.4697 331.424 34.1334 317.2C41.797 302.976 58.1558 296.704 58.3201 296.642L59.0678 296.361L59.2444 297.141C59.2832 297.312 63.0357 314.438 55.3721 328.661C47.7088 342.885 31.3497 349.157 31.1853 349.219L30.4373 349.5L30.261 348.72ZM58.0424 298.264C54.7656 299.675 41.8331 305.849 35.3605 317.862C28.8872 329.876 30.8402 344.084 31.463 347.597C34.7384 346.19 47.6659 340.025 54.1449 327.999C60.6178 315.986 58.6655 301.78 58.0424 298.264Z" fill="#F1F1F1"/>
<path d="M49.5155 323.672C35.7435 331.964 30.4395 348.435 30.4395 348.435C30.4395 348.435 47.4642 351.462 61.2362 343.169C75.0082 334.877 80.3122 318.406 80.3122 318.406C80.3122 318.406 63.2875 315.38 49.5155 323.672Z" fill="#F1F1F1"/>
<path d="M580 0.5H547.941V32.5851H580V0.5Z" fill="#F1F1F1"/>
<path d="M329.101 125.353H297.041V157.438H329.101V125.353Z" fill="#F1F1F1"/>
<path d="M315.035 143.378H568.496V14.962H315.035V143.378Z" fill="white"/>
<path d="M570.587 145.471H312.945V12.8694H570.587V145.471ZM317.126 141.286H566.405V17.0544H317.126V141.286Z" fill="#E5E5E5"/>
<path d="M540.468 60.0081H345.459V66.4803H540.468V60.0081Z" fill="#E5E5E5"/>
<path d="M540.468 75.704H345.459V82.1762H540.468V75.704Z" fill="#E5E5E5"/>
<path d="M540.468 98.8796H504.227V104.496H540.468V98.8796Z" fill="#269E96"/>
<path d="M266.232 349.472H0.696943C0.512102 349.472 0.334831 349.398 0.204129 349.268C0.0734272 349.137 0 348.959 0 348.774C0 348.589 0.0734272 348.412 0.204129 348.281C0.334831 348.15 0.512102 348.077 0.696943 348.077H266.232C266.417 348.077 266.594 348.15 266.725 348.281C266.856 348.412 266.929 348.589 266.929 348.774C266.929 348.959 266.856 349.137 266.725 349.268C266.594 349.398 266.417 349.472 266.232 349.472Z" fill="#CBCBCB"/>
</g>
<defs>
<clipPath id="clip0_4725_329">
<rect width="580" height="349" fill="white" transform="translate(0 0.5)"/>
</clipPath>
</defs>
</svg>
