<svg width="152" height="338" viewBox="0 0 152 338" fill="none" xmlns="http://www.w3.org/2000/svg">
<path d="M151.373 179.799C151.583 178.714 151.553 177.596 151.284 176.524C151.016 175.452 150.516 174.452 149.82 173.595C149.123 172.737 148.248 172.043 147.254 171.56C146.261 171.078 145.173 170.82 144.069 170.803L137.692 154.752L127 156.252L136.325 178.793C136.42 180.651 137.193 182.409 138.498 183.735C139.802 185.061 141.547 185.861 143.402 185.985C145.257 186.109 147.093 185.548 148.562 184.408C150.031 183.268 151.031 181.628 151.373 179.799Z" fill="#9F616A"/>
<path d="M131.675 174.159L128.363 166.253L107.718 126.924L108.841 54.152L109.056 54.1234C122.266 52.3767 131.204 113.292 131.578 115.886L144.621 160.532L147.726 170.372L131.675 174.159Z" fill="#269E96"/>
<path d="M99.9542 327.611L109.992 327.61L114.766 288.863L99.9521 288.864L99.9542 327.611Z" fill="#9F616A"/>
<path d="M97.3936 324.331L117.161 324.33H117.162C120.503 324.33 123.707 325.659 126.069 328.023C128.432 330.387 129.759 333.594 129.759 336.937V337.347L97.3941 337.348L97.3936 324.331Z" fill="#2F2E41"/>
<path d="M7.66296 312.305L15.8987 318.049L41.9519 288.992L29.7972 280.515L7.66296 312.305Z" fill="#9F616A"/>
<path d="M7.43613 308.15L23.6544 319.46L23.655 319.46C26.3959 321.372 28.2658 324.295 28.8533 327.587C29.4408 330.878 28.6979 334.269 26.7879 337.012L26.5538 337.348L0 318.83L7.43613 308.15Z" fill="#2F2E41"/>
<path d="M94.4376 318.503L94.0039 245.816L87.6883 200.111L75.9135 240.304L75.8906 240.337L33.2203 302.335L16.6168 293.916L16.7078 293.7C17.7225 291.284 41.632 234.556 48.0586 234.556C48.6198 234.595 49.1822 234.497 49.6973 234.271C50.2123 234.044 50.6646 233.696 51.0153 233.256C52.9015 230.735 51.3654 225.386 51.3497 225.332C49.51 217.697 54.1357 215.097 55.0569 214.663L57.5349 163.468L57.7918 163.486L124.97 168.202L122.151 232.209L116.089 316.071L115.881 316.094L94.4376 318.503Z" fill="#2F2E41"/>
<path d="M125.996 179.546L125.706 179.522L53.4574 173.694L53.6357 149.77L57.1719 87.3025L57.192 87.2591L71.5927 55.9701L81.8011 51.3439L96.6949 50.5594L96.7312 50.5686L110.324 53.9388L124.463 155.522L125.996 179.546Z" fill="#269E96"/>
<path d="M99.0288 42.5408C108.247 37.4976 111.635 25.9304 106.596 16.7048C101.557 7.47913 89.9987 4.08859 80.7804 9.13179C71.5622 14.175 68.1744 25.7422 73.2135 34.9678C78.2527 44.1934 89.8106 47.584 99.0288 42.5408Z" fill="#9F616A"/>
<path d="M70.7742 30.615V23.1975C70.7742 23.1975 64.7972 16.1525 71.3719 14.3778C71.3719 14.3778 73.165 -3.36863 88.705 4.91306C88.705 4.91306 110.222 1.36377 107.831 13.7863C107.831 13.7863 113.21 10.5432 111.417 18.8249L107.95 32.1652C107.95 32.1652 109.624 23.353 104.245 22.1698L101.257 20.3952C101.257 20.3952 92.8888 28.6769 80.3373 18.6205C80.3373 18.6205 74.958 17.3356 75.5557 22.6596C76.1534 27.9835 70.7742 30.615 70.7742 30.615Z" fill="#2F2E41"/>
<path d="M87.924 161.68C87.936 160.575 87.7058 159.481 87.2495 158.475C86.7933 157.468 86.1221 156.574 85.2833 155.856C84.4445 155.137 83.4585 154.611 82.3946 154.315C81.3308 154.019 80.215 153.96 79.1259 154.142L69.9737 139.497L59.7245 142.893L72.9394 163.393C73.3665 165.204 74.4425 166.795 75.9635 167.865C77.4845 168.935 79.3448 169.409 81.1919 169.198C83.0389 168.987 84.7444 168.105 85.9852 166.719C87.226 165.334 87.9158 163.541 87.924 161.68Z" fill="#9F616A"/>
<path d="M64.2856 157.064L47.7279 123.42L47.7425 123.338C47.8092 122.965 54.4743 85.9283 59.5719 72.3146C64.7017 58.6146 71.7234 55.8639 72.0198 55.7536L72.168 55.6984L78.464 61.7424L69.7425 120.003L79.1436 148.101L64.2856 157.064Z" fill="#269E96"/>
</svg>
