<svg width="175" height="433" viewBox="0 0 175 433" fill="none" xmlns="http://www.w3.org/2000/svg">
<path d="M90.1834 421.194L100.87 421.193L105.953 380.046L90.1812 380.048L90.1834 421.194Z" fill="#FFB6B6"/>
<path d="M89.8074 432.322L122.67 432.321V431.906C122.67 428.52 121.322 425.272 118.923 422.878C116.525 420.483 113.271 419.138 109.879 419.138H109.878L103.875 414.592L92.6756 419.139L89.8069 419.139L89.8074 432.322Z" fill="#2F2E41"/>
<path d="M96.1962 378.097L87.5089 384.309L59.3674 353.82L72.1886 344.65L96.1962 378.097Z" fill="#FFB6B6"/>
<path d="M102.996 386.923L76.2828 406.03L76.0408 405.693C74.065 402.94 73.2655 399.517 73.8181 396.176C74.3708 392.835 76.2302 389.85 78.9875 387.877L78.9881 387.877L81.2149 380.692L92.9716 377.875L95.3034 376.207L102.996 386.923Z" fill="#2F2E41"/>
<path d="M56.1268 187.128C56.1268 187.128 -10.1277 258.29 1.33196 279.149C12.7917 300.009 68.0679 371.335 68.0679 371.335L83.2219 353.966C70.4857 323.8 56.7816 297.435 40.7942 280.037L87.1206 245.876C87.1206 245.876 90.5296 302.426 87.725 311.311C84.9204 320.196 80.2017 315.486 84.9204 320.196C89.6391 324.906 92.0194 325.771 89.481 328.703C86.9427 331.635 85.117 398.431 85.117 398.431H106.916C106.916 398.431 127.259 275.372 125.976 270.869C124.692 266.365 125.428 268.43 125.397 262.687C125.366 256.944 134.669 209.898 134.669 209.898L56.1268 187.128Z" fill="#2F2E41"/>
<path d="M101.099 53.9114L80.2017 55.2572L66.489 72.7882L43.6727 90.1436L58.1491 134.123C58.1491 134.123 57.4362 156.599 54.9999 159.423C52.5636 162.247 48.519 158.882 52.5636 164.938C55.0294 168.776 56.4256 173.2 56.6082 177.756C56.6082 177.756 33.5612 196.901 41.778 201.947C49.9949 206.994 66.5917 193.873 75.0819 201.611C83.5722 209.349 139.973 224.932 140.197 214.059C140.42 203.187 126.114 118.291 126.114 118.291L129.411 77.4626L110.536 64.6776L101.099 53.9114Z" fill="#269E96"/>
<path d="M68.0221 225.454L60.9386 204.169L48.1931 206.512L56.4843 228.75C55.9802 230.053 55.8502 231.47 56.1089 232.843C56.3677 234.216 57.0048 235.489 57.9488 236.52C58.8928 237.551 60.1062 238.299 61.4526 238.679C62.7989 239.059 64.2249 239.057 65.5701 238.673C66.9154 238.289 68.1266 237.538 69.0676 236.504C70.0086 235.47 70.6421 234.195 70.8968 232.822C71.1516 231.448 71.0175 230.031 70.5096 228.73C70.0018 227.428 69.1403 226.294 68.0221 225.454H68.0221Z" fill="#FFB6B6"/>
<path d="M49.1738 86.7183L48.8378 86.858C45.7127 88.1589 42.9522 90.2005 40.7955 92.8061C38.6388 95.4117 37.1509 98.5028 36.4605 101.812C34.6539 110.443 32.8763 122.928 34.2817 134.618C36.7637 155.264 31.6774 164.349 34.9868 170.955C38.2961 177.562 39.1235 175.085 38.2961 180.04C37.4688 184.995 33.332 180.866 37.4688 187.473C41.6055 194.079 44.0875 192.428 42.4328 195.731C40.7782 199.035 38.2961 199.035 41.6055 203.164C44.9148 207.293 44.9148 208.945 45.7422 210.597C46.5695 212.248 49.0515 224.636 49.0515 224.636C49.0515 224.636 62.2889 220.507 69.735 222.158C69.735 222.158 63.1162 210.596 64.7709 208.119C66.4256 205.641 68.9076 204.816 66.4256 202.338C63.9436 199.86 59.8069 200.686 63.9436 198.209C68.0803 195.731 64.6974 145.425 64.6974 145.425L49.1738 86.7183Z" fill="#269E96"/>
<path d="M158.866 200.76L154.031 178.857L166.18 174.354L170.467 197.693C171.568 198.555 172.407 199.706 172.889 201.017C173.371 202.328 173.477 203.748 173.195 205.116C172.913 206.484 172.254 207.746 171.293 208.761C170.332 209.776 169.106 210.503 167.753 210.861C166.401 211.218 164.975 211.192 163.636 210.785C162.298 210.379 161.1 209.607 160.176 208.558C159.253 207.508 158.641 206.222 158.41 204.845C158.178 203.468 158.336 202.053 158.866 200.76V200.76Z" fill="#FFB6B6"/>
<path d="M109.674 68.5143L110.034 68.4626C113.386 67.9825 116.804 68.3251 119.993 69.4607C123.182 70.5964 126.046 72.4908 128.337 74.9801C134.316 81.4705 142.248 91.2853 147.038 102.045C155.497 121.047 158.736 129.696 159.283 137.063C159.83 144.429 157.848 142.724 161.101 146.557C164.353 150.39 165.788 144.729 165.625 152.518C165.461 160.308 162.481 160.158 165.597 162.15C168.713 164.141 170.845 162.872 170.121 168.111C169.397 173.349 170.244 174.768 170.381 176.61C170.517 178.451 174.741 190.36 174.741 190.36C174.741 190.36 161.252 193.58 155.704 198.805C155.704 198.805 155.458 185.491 152.765 184.208C150.073 182.926 147.517 183.485 148.378 180.089C149.239 176.692 153.216 175.287 148.392 175.273C143.568 175.259 114.581 113.126 114.581 113.126L109.674 68.5143Z" fill="#269E96"/>
<path d="M89.4469 51.7491C101.596 51.7491 111.446 41.9176 111.446 29.7897C111.446 17.6619 101.596 7.83032 89.4469 7.83032C77.2972 7.83032 67.448 17.6619 67.448 29.7897C67.448 41.9176 77.2972 51.7491 89.4469 51.7491Z" fill="#FFB6B6"/>
<path d="M115.089 22.6543C112.829 23.6827 111.365 31.1315 109.589 29.3998C107.813 27.6681 107.932 25.4146 105.537 24.7756C103.604 24.2573 101.523 24.8496 99.759 25.7838C99.444 25.9486 99.1387 26.1279 98.8412 26.3061C98.6447 26.1751 98.4492 26.0519 98.2394 25.9381C96.6618 25.0954 94.8205 24.8886 93.0947 25.3605C94.4584 25.8164 95.644 26.6887 96.4838 27.854C95.8935 28.2489 95.2956 28.6448 94.6841 28.9955C89.5748 31.9387 82.3046 25.5389 76.9267 23.1347C80.2953 29.4447 78.6366 32.058 75.7117 38.584L75.6107 38.9556C75.7768 37.32 70.7065 36.1011 71.0006 38.4035C71.5143 40.7354 72.3276 42.9912 73.4204 45.1151C67.766 38.5889 63.9021 30.6025 64.7174 22.364C64.8949 20.6333 64.8414 18.8073 65.7357 17.3052C66.6309 15.8108 68.4972 14.7622 70.1483 15.332C70.0084 12.7046 70.5844 10.0885 71.815 7.76184C73.0456 5.43513 74.8848 3.48478 77.1372 2.11814C79.3895 0.751499 81.9707 0.0196482 84.6065 0.000390132C87.2422 -0.018868 89.8339 0.675185 92.106 2.00877C94.2173 3.2454 95.9799 4.9944 97.9149 6.50306C99.85 8.0117 102.081 9.32674 104.534 9.45128C106.091 9.52622 107.785 9.14687 109.122 9.95164C110.671 10.8854 110.937 12.8405 111.169 14.7218C109.787 14.8578 108.478 15.4019 107.407 16.2846C108.837 16.139 110.276 16.4472 111.52 17.1652C111.544 17.1759 111.566 17.1886 111.588 17.2034C112.407 20.3126 112.323 21.0018 115.089 22.6543Z" fill="#2F2E41"/>
</svg>
