<svg width="463" height="434" viewBox="0 0 463 434" fill="none" xmlns="http://www.w3.org/2000/svg">
<g clip-path="url(#clip0_4722_210)">
<path d="M431.364 434H19.8427C14.5819 433.994 9.53828 431.905 5.81832 428.192C2.09837 424.479 0.00591094 419.444 0 414.193V237.381C0.00598217 232.129 2.09845 227.095 5.81839 223.381C9.53833 219.668 14.5819 217.579 19.8427 217.573H431.364C436.624 217.579 441.668 219.668 445.388 223.381C449.108 227.095 451.2 232.129 451.206 237.381V414.193C451.2 419.444 449.108 424.479 445.388 428.192C441.668 431.905 436.624 433.994 431.364 434Z" fill="white"/>
<path d="M431.364 434H19.8427C14.5819 433.994 9.53828 431.905 5.81832 428.192C2.09837 424.479 0.00591094 419.444 0 414.193V237.381C0.00598414 232.129 2.09846 227.095 5.81839 223.381C9.53833 219.668 14.5819 217.579 19.8427 217.573C142.607 204.205 282.391 206.626 431.364 217.573C436.624 217.579 441.668 219.668 445.388 223.381C449.108 227.095 451.2 232.129 451.206 237.381C466.628 288.647 467.231 361.517 451.206 414.193C451.2 419.444 449.108 424.479 445.388 428.192C441.668 431.905 436.624 433.994 431.364 434ZM19.8427 219.296C17.4635 219.296 15.1076 219.764 12.9095 220.672C10.7115 221.581 8.71422 222.913 7.03187 224.593C5.34953 226.272 4.01501 228.266 3.10453 230.46C2.19406 232.654 1.72544 235.006 1.72544 237.381V414.193C1.72544 418.989 3.63422 423.589 7.03187 426.981C10.4295 430.372 15.0377 432.278 19.8427 432.278H431.364C436.169 432.278 440.777 430.372 444.175 426.981C447.572 423.589 449.481 418.989 449.481 414.193V334.481C449.481 303.932 437.324 274.634 415.683 253.033C394.043 231.431 364.692 219.296 334.088 219.296L19.8427 219.296Z" fill="#E6E6E6"/>
<path d="M302.848 243.776H251.133C250.849 243.777 250.568 243.722 250.306 243.614C250.044 243.507 249.805 243.349 249.604 243.149C249.403 242.949 249.244 242.711 249.135 242.45C249.026 242.188 248.97 241.908 248.97 241.625C248.97 241.342 249.026 241.061 249.135 240.8C249.244 240.538 249.403 240.301 249.604 240.101C249.805 239.901 250.044 239.743 250.306 239.635C250.568 239.528 250.849 239.473 251.133 239.474H302.848C303.132 239.473 303.413 239.528 303.675 239.635C303.938 239.743 304.176 239.901 304.377 240.101C304.578 240.301 304.737 240.538 304.846 240.8C304.955 241.061 305.011 241.342 305.011 241.625C305.011 241.908 304.955 242.188 304.846 242.45C304.737 242.711 304.578 242.949 304.377 243.149C304.176 243.349 303.938 243.507 303.675 243.614C303.413 243.722 303.132 243.777 302.848 243.776V243.776Z" fill="#269E96"/>
<path d="M257.899 310.332H206.183C205.9 310.333 205.619 310.278 205.356 310.17C205.094 310.063 204.855 309.904 204.654 309.704C204.454 309.505 204.294 309.267 204.185 309.006C204.077 308.744 204.021 308.464 204.021 308.181C204.021 307.898 204.077 307.617 204.185 307.356C204.294 307.094 204.454 306.857 204.654 306.657C204.855 306.457 205.094 306.299 205.356 306.191C205.619 306.084 205.9 306.029 206.183 306.03H257.899C258.182 306.029 258.463 306.084 258.726 306.191C258.988 306.299 259.226 306.457 259.427 306.657C259.628 306.857 259.788 307.094 259.897 307.356C260.005 307.617 260.061 307.898 260.061 308.181C260.061 308.464 260.005 308.744 259.897 309.006C259.788 309.267 259.628 309.505 259.427 309.704C259.226 309.904 258.988 310.063 258.726 310.17C258.463 310.278 258.182 310.333 257.899 310.332V310.332Z" fill="#269E96"/>
<path d="M298.741 305.9C296.575 302.829 294.778 299.515 293.384 296.027C293.342 295.921 293.269 295.831 293.175 295.768C293.081 295.704 292.97 295.67 292.857 295.67C292.743 295.67 292.632 295.704 292.538 295.768C292.444 295.831 292.372 295.921 292.33 296.027C290.937 299.515 289.139 302.829 286.974 305.9C286.902 305.999 286.863 306.118 286.864 306.241C286.865 306.363 286.905 306.482 286.979 306.579C287.053 306.677 287.156 306.748 287.274 306.783C287.391 306.817 287.517 306.813 287.632 306.771L292.107 305.154V332.812H293.606V305.154L298.083 306.771C298.198 306.813 298.324 306.817 298.441 306.783C298.559 306.748 298.662 306.677 298.736 306.579C298.81 306.482 298.85 306.363 298.851 306.241C298.852 306.119 298.813 305.999 298.741 305.9V305.9Z" fill="#3F3D56"/>
<path d="M251.431 257.14C251.389 257.035 251.316 256.945 251.222 256.881C251.128 256.817 251.017 256.783 250.904 256.784C250.79 256.784 250.679 256.818 250.586 256.881C250.492 256.945 250.419 257.035 250.377 257.14C248.984 260.629 247.186 263.943 245.021 267.014C244.949 267.112 244.91 267.232 244.911 267.354C244.912 267.476 244.952 267.595 245.026 267.693C245.1 267.79 245.203 267.862 245.321 267.896C245.438 267.931 245.564 267.926 245.679 267.884L250.155 266.268V293.925H251.653V266.268L256.13 267.884C256.245 267.927 256.371 267.931 256.488 267.896C256.606 267.862 256.709 267.79 256.783 267.693C256.857 267.595 256.897 267.477 256.898 267.354C256.899 267.232 256.86 267.113 256.788 267.014C254.623 263.943 252.825 260.629 251.431 257.14V257.14Z" fill="#3F3D56"/>
<path d="M209.478 319.209C209.436 319.104 209.363 319.013 209.269 318.95C209.175 318.886 209.064 318.852 208.951 318.852C208.837 318.852 208.726 318.886 208.632 318.95C208.538 319.014 208.466 319.104 208.424 319.209C207.031 322.698 205.233 326.012 203.068 329.083C202.996 329.181 202.957 329.301 202.958 329.423C202.959 329.545 202.999 329.664 203.073 329.761C203.147 329.859 203.25 329.93 203.368 329.965C203.485 329.999 203.611 329.995 203.726 329.953L208.201 328.337V355.994H209.7V328.337L214.177 329.953C214.292 329.995 214.418 330 214.535 329.965C214.653 329.931 214.756 329.859 214.83 329.762C214.904 329.664 214.944 329.545 214.945 329.423C214.946 329.301 214.907 329.182 214.835 329.083C212.669 326.011 210.871 322.698 209.478 319.209V319.209Z" fill="#3F3D56"/>
<path d="M393.244 341.785V329.82C369.329 312.26 356.07 312.075 348.295 315.612C338.424 320.101 335.197 331.579 331.487 341.785H393.244Z" fill="#F2F2F2"/>
<path d="M200.808 388.15C195.624 384.107 193.377 373.176 182.73 370.202C176.52 368.468 171.283 370.513 162.503 373.941C150.932 378.46 145.833 383.584 138.985 388.15H200.808Z" fill="#F2F2F2"/>
<path d="M223.866 367.211C216.928 375.985 213.54 384.724 209.119 388.15H393.244V367.211H223.866Z" fill="#F2F2F2"/>
<path d="M330.653 344.029C327.82 351.424 324.431 357.782 317.579 359.733C305.516 363.167 300.106 347.994 277.124 345.524C274.781 345.273 254.441 343.368 236.67 355.246C232.597 357.98 228.913 361.25 225.716 364.968H393.244V344.029H330.653Z" fill="#F2F2F2"/>
<path d="M256.148 358.237C262.354 358.237 267.385 353.215 267.385 347.02C267.385 340.825 262.354 335.803 256.148 335.803C249.942 335.803 244.91 340.825 244.91 347.02C244.91 353.215 249.942 358.237 256.148 358.237Z" fill="#269E96"/>
<path d="M343.303 288.645H291.588C291.304 288.646 291.023 288.591 290.761 288.484C290.498 288.376 290.26 288.218 290.059 288.018C289.858 287.818 289.698 287.58 289.59 287.319C289.481 287.058 289.425 286.777 289.425 286.494C289.425 286.211 289.481 285.931 289.59 285.669C289.698 285.408 289.858 285.17 290.059 284.97C290.26 284.77 290.498 284.612 290.761 284.505C291.023 284.397 291.304 284.342 291.588 284.343H343.303C343.586 284.342 343.868 284.397 344.13 284.505C344.392 284.612 344.631 284.77 344.832 284.97C345.033 285.17 345.192 285.408 345.301 285.669C345.41 285.931 345.466 286.211 345.466 286.494C345.466 286.777 345.41 287.058 345.301 287.319C345.192 287.58 345.033 287.818 344.832 288.018C344.631 288.218 344.392 288.376 344.13 288.484C343.868 288.591 343.586 288.646 343.303 288.645V288.645Z" fill="#269E96"/>
<path d="M66.5715 417.46C66.1407 417.479 65.7142 417.366 65.3499 417.136C64.9855 416.906 64.7008 416.569 64.5345 416.172C64.3681 415.775 64.3281 415.337 64.4198 414.916C64.5115 414.495 64.7305 414.113 65.0472 413.821L65.1913 413.249C65.1723 413.203 65.1532 413.157 65.134 413.112C64.7001 412.088 63.9728 411.216 63.0438 410.604C62.1147 409.992 61.0251 409.668 59.912 409.672C58.7988 409.676 57.7117 410.008 56.7872 410.627C55.8627 411.246 55.142 412.124 54.7156 413.15C53.0117 417.247 50.8422 421.35 50.308 425.682C50.0728 427.597 50.172 429.537 50.6013 431.418C46.5992 422.704 44.5209 413.232 44.5076 403.645C44.5067 401.24 44.6406 398.836 44.9086 396.445C45.1301 394.485 45.4374 392.539 45.8305 390.607C47.9756 380.124 52.5812 370.299 59.269 361.938C62.506 360.175 65.1237 357.464 66.7695 354.17C67.3658 352.986 67.7872 351.722 68.0206 350.417C67.6555 350.465 66.6438 344.914 66.9192 344.574C66.4104 343.803 65.4995 343.42 64.9438 342.668C62.1798 338.927 58.3718 339.58 56.3838 344.663C52.137 346.803 52.0959 350.351 54.7017 353.764C56.3595 355.935 56.5874 358.872 58.0419 361.197C57.8923 361.388 57.7366 361.573 57.587 361.765C54.8514 365.276 52.4671 369.046 50.4683 373.022C50.9544 368.568 50.3742 364.063 48.7756 359.876C47.1554 355.975 44.1186 352.689 41.4443 349.316C38.232 345.265 31.645 347.033 31.0791 352.168C31.0736 352.218 31.0683 352.268 31.0631 352.318C31.4603 352.541 31.8491 352.779 32.2295 353.03C32.7075 353.349 33.0778 353.804 33.292 354.336C33.5063 354.869 33.5544 355.454 33.43 356.014C33.3057 356.574 33.0147 357.084 32.5953 357.476C32.1758 357.868 31.6474 358.125 31.0793 358.212L31.0211 358.221C31.1627 359.65 31.4128 361.066 31.7694 362.458C28.3386 375.702 35.7454 380.525 46.3213 380.742C46.5548 380.862 46.7823 380.981 47.0158 381.095C45.0076 386.775 43.748 392.693 43.2685 398.698C42.9971 402.24 43.0131 405.799 43.3164 409.34L43.2985 409.214C42.5322 405.277 40.4284 401.725 37.3424 399.158C32.7588 395.399 26.2832 394.015 21.3383 390.994C20.8128 390.657 20.2018 390.478 19.5773 390.476C18.9528 390.475 18.3409 390.651 17.8137 390.986C17.2865 391.32 16.8662 391.798 16.6021 392.363C16.338 392.927 16.2413 393.556 16.3233 394.174C16.3299 394.218 16.3367 394.262 16.3435 394.306C17.0807 394.606 17.7984 394.951 18.4925 395.34C18.8897 395.563 19.2785 395.801 19.659 396.052C20.1369 396.371 20.5072 396.826 20.7214 397.358C20.9356 397.891 20.9837 398.475 20.8594 399.036C20.7351 399.596 20.4441 400.105 20.0247 400.498C19.6052 400.89 19.0768 401.147 18.5087 401.234L18.4505 401.243C18.4087 401.249 18.3727 401.255 18.3309 401.261C19.5904 404.263 21.3581 407.026 23.5566 409.429C25.7018 420.991 34.9154 422.087 44.771 418.721H44.777C45.8583 423.411 47.4251 427.977 49.4521 432.344H66.153C66.2129 432.159 66.2668 431.968 66.3206 431.783C64.7748 431.88 63.2228 431.787 61.6994 431.508C62.9385 429.99 64.1776 428.46 65.4168 426.943C65.4444 426.914 65.4704 426.884 65.4946 426.853C66.1231 426.076 66.7576 425.305 67.3861 424.529L67.3865 424.528C67.42 422.147 67.1462 419.771 66.572 417.46L66.5715 417.46Z" fill="#F2F2F2"/>
</g>
<defs>
<clipPath id="clip0_4722_210">
<rect width="463" height="434" fill="white"/>
</clipPath>
</defs>
</svg>
