<svg width="206" height="527" viewBox="0 0 206 527" fill="none" xmlns="http://www.w3.org/2000/svg">
<path d="M192.9 162.298C201.499 159.465 207.004 152.743 205.196 147.284C203.388 141.825 194.952 139.698 186.35 142.533C182.898 143.618 179.757 145.513 177.19 148.057L140.906 160.519L147.131 177.379L182.24 163.304C185.823 163.823 189.478 163.478 192.9 162.298V162.298Z" fill="#FFB6B6"/>
<path d="M6.38381 258.929C6.67741 267.958 11.5857 275.126 17.346 274.939C23.1064 274.751 27.5365 267.281 27.2416 258.249C27.1734 254.639 26.2396 251.098 24.5184 247.923L22.7901 209.682L4.81763 210.874L8.42949 248.445C6.918 251.727 6.21654 255.322 6.38383 258.929L6.38381 258.929Z" fill="#FFB6B6"/>
<path d="M47.8763 516.596L63.9185 516.594L68.0287 454.462L47.873 454.872L47.8763 516.596Z" fill="#FFB6B6"/>
<path d="M102.839 516.233C103.338 517.072 103.602 519.781 103.602 520.756C103.602 523.756 101.164 526.188 98.1571 526.188H48.4762C46.4249 526.188 44.7618 524.529 44.7618 522.482V520.419C44.7618 520.419 42.3041 514.218 47.364 506.575C47.364 506.575 53.6528 512.56 63.0498 503.186L65.8209 498.178L85.8799 512.812L96.9983 514.177C99.4308 514.476 101.587 514.131 102.839 516.233H102.839V516.233Z" fill="#2F2E41"/>
<path d="M85.9043 516.596L101.947 516.594L106.057 454.462L85.9011 454.872L85.9043 516.596Z" fill="#FFB6B6"/>
<path d="M140.867 516.233C141.366 517.072 141.63 519.781 141.63 520.756C141.63 523.756 139.192 526.188 136.185 526.188H86.5043C84.4529 526.188 82.7898 524.529 82.7898 522.482V520.419C82.7898 520.419 80.3322 514.218 85.3921 506.575C85.3921 506.575 91.6809 512.56 101.078 503.186L103.849 498.178L123.908 512.812L135.026 514.177C137.459 514.476 139.616 514.131 140.867 516.233H140.867V516.233Z" fill="#2F2E41"/>
<path d="M57.2114 53.8136C70.2444 53.8136 80.8097 43.2745 80.8097 30.274C80.8097 17.2734 70.2444 6.73438 57.2114 6.73438C44.1784 6.73438 33.613 17.2734 33.613 30.274C33.613 43.2745 44.1784 53.8136 57.2114 53.8136Z" fill="#FFB6B6"/>
<path d="M24.5598 226.071L35.6513 384.127L41.9893 490.025L72.0949 488.444L68.9259 373.063L75.2639 301.938L84.7709 488.444H108.732L118.045 227.652L66.5491 220.539L24.5598 226.071Z" fill="#2F2E41"/>
<path d="M65.7568 49.0486C59.0451 55.4933 43.534 51.2201 35.6513 49.0486C31.3123 47.8533 28.6938 46.6214 27.7287 44.3069C27.0579 42.698 27.4391 41.1724 26.1442 37.9847C25.3858 36.1174 24.9858 35.9781 24.5597 34.8236C23.3719 31.6051 25.0218 28.7377 26.1442 25.3402C28.4863 18.251 25.69 17.455 27.7287 12.6957C30.7937 5.54075 39.1311 2.62969 41.9893 1.63181C47.3256 -0.231405 51.776 -0.0344202 53.0808 0.0512461C61.4397 0.600159 67.0282 4.87878 68.9258 6.37348C72.7724 9.4034 74.6592 12.6083 78.4328 19.018C81.7166 24.5956 81.956 26.7361 81.6018 28.5013C81.0622 31.1911 79.5071 31.2011 78.4328 34.8236C77.2134 38.9355 78.6005 41.0021 76.8483 42.7263C75.6639 43.8919 74.5632 43.407 72.0948 44.3069C68.6975 45.5454 67.0206 47.8352 65.7568 49.0486Z" fill="#2F2E41"/>
<path d="M84.7708 72.757C84.7708 72.757 61.0032 42.7263 30.8977 53.7902L21.1474 72.757L17.8898 75.8329C4.22482 88.7357 -2.13293 107.56 0.919166 126.081L15.0527 211.846C15.0527 211.846 13.4682 245.038 24.5597 254.521C24.5597 254.521 40.4047 224.491 78.4328 238.716C116.461 252.941 124.383 245.038 124.383 245.038L111.707 154.946L84.7708 72.757Z" fill="#2F2E41"/>
<path d="M76.8483 77.4986L68.9258 94.8848L99.0313 196.041L181.425 166.01L170.334 147.043L130.721 158.107C130.721 158.107 100.616 69.5958 76.8483 77.4986Z" fill="#2F2E41"/>
<path d="M20.5985 236.345H3.169L0 109.9L20.5985 152.575V236.345Z" fill="#2F2E41"/>
</svg>
