<svg width="570" height="437" viewBox="0 0 570 437" fill="none" xmlns="http://www.w3.org/2000/svg">
<ellipse cx="292.98" cy="218.5" rx="212.61" ry="218.5" fill="#18DDD3" fill-opacity="0.17"/>
<g clip-path="url(#clip0_4717_1152)">
<path d="M344.605 104.176V42.643C344.605 22.9742 329.157 7.02942 310.102 7.02942H183.8C164.745 7.02909 149.298 22.9736 149.297 42.6425V380.219C149.297 399.888 164.745 415.833 183.8 415.833H310.101C329.156 415.833 344.603 399.888 344.603 380.219V147.977H344.603C345.803 147.977 346.776 146.973 346.776 145.734L346.778 106.42C346.778 105.181 345.805 104.176 344.605 104.176L344.605 104.176V104.176Z" fill="#3F3D56"/>
<path d="M338.125 39.6819V382.028C317.962 380.749 328.218 408.173 311.967 409.034H183.074C168.621 409.037 156.902 396.946 156.898 382.028V39.6819C156.902 24.7641 168.62 12.6737 183.072 12.6756H192.578C189.989 19.2465 210.881 21.3843 212.483 21.3864H278.495C285.367 21.3774 301.947 14.207 301.343 12.6756H311.962C326.409 12.6781 338.12 24.7646 338.125 39.6767L338.125 39.6819H338.125Z" fill="white"/>
<path d="M148.281 111.714C147.362 111.714 146.615 112.485 146.615 113.434V127.197C146.615 128.146 147.362 128.917 148.281 128.917C149.201 128.917 149.948 128.146 149.948 127.197V113.434C149.948 112.485 149.201 111.714 148.281 111.714Z" fill="#3F3D56"/>
<path d="M148.281 153.002C147.362 153.002 146.615 153.774 146.615 154.723V181.388C146.615 182.337 147.362 183.109 148.281 183.109C149.201 183.109 149.948 182.337 149.948 181.388V154.723C149.948 153.774 149.201 153.002 148.281 153.002Z" fill="#3F3D56"/>
<path d="M148.281 190.85C147.362 190.85 146.615 191.622 146.615 192.571V219.236C146.615 220.185 147.362 220.957 148.281 220.957C149.201 220.957 149.948 220.185 149.948 219.236V192.571C149.948 191.622 149.201 190.85 148.281 190.85Z" fill="#3F3D56"/>
<path d="M294.396 146.19H198.997C192.458 146.183 187.159 140.713 187.151 133.963V91.6359C187.159 84.8862 192.458 79.4164 198.997 79.4088C229.438 70.7034 261.365 71.5192 294.396 79.4088C300.935 79.4168 306.234 84.8865 306.241 91.6359V133.963C306.234 140.713 300.935 146.182 294.396 146.19H294.396Z" fill="#F2F2F2"/>
<path d="M304.115 190.551H189.279C188.105 190.55 187.153 189.568 187.152 188.356V158.953C187.154 157.742 188.105 156.76 189.279 156.758H304.115C305.289 156.76 306.24 157.742 306.242 158.953V188.357C306.24 189.569 305.289 190.55 304.115 190.552V190.551V190.551ZM189.279 157.636C188.574 157.637 188.003 158.226 188.003 158.953V188.357C188.003 189.084 188.574 189.673 189.279 189.674H304.115C304.82 189.673 305.39 189.084 305.391 188.357V158.953C305.39 158.226 304.82 157.637 304.115 157.636H189.279V157.636Z" fill="#E6E6E6"/>
<path d="M224.793 167.506C223.971 167.524 223.318 168.226 223.336 169.075C223.352 169.898 223.995 170.562 224.793 170.579H294.97C295.792 170.612 296.484 169.95 296.515 169.102C296.546 168.254 295.906 167.54 295.084 167.507H224.793V167.506V167.506Z" fill="#E6E6E6"/>
<path d="M224.793 176.728C223.971 176.746 223.318 177.448 223.336 178.297C223.352 179.12 223.995 179.783 224.793 179.801H294.97C295.792 179.833 296.484 179.172 296.515 178.324C296.546 177.476 295.906 176.762 295.084 176.729H224.793V176.728V176.728Z" fill="#E6E6E6"/>
<path d="M205.079 179.802C208.368 179.802 211.034 177.05 211.034 173.656C211.034 170.261 208.368 167.509 205.079 167.509C201.79 167.509 199.124 170.261 199.124 173.656C199.124 177.05 201.79 179.802 205.079 179.802Z" fill="#E6E6E6"/>
<path d="M304.115 334.873H189.279C188.105 334.872 187.153 333.89 187.152 332.678V303.276C187.154 302.064 188.105 301.082 189.279 301.081H304.115C305.289 301.082 306.24 302.064 306.242 303.276V332.679C306.24 333.891 305.289 334.873 304.115 334.874V334.873V334.873ZM189.279 301.958C188.574 301.959 188.003 302.548 188.003 303.276V332.679C188.003 333.406 188.574 333.995 189.279 333.996L291.07 332.961C291.775 332.96 302.456 328.848 302.456 328.121L305.391 303.276C305.39 302.548 304.82 301.959 304.115 301.958H189.279V301.958Z" fill="#E6E6E6"/>
<path d="M224.793 316.211C223.97 316.193 223.29 316.867 223.273 317.715C223.255 318.564 223.908 319.266 224.73 319.284C224.751 319.285 224.772 319.285 224.793 319.284H294.97C295.792 319.317 296.483 318.655 296.515 317.807C296.546 316.959 295.906 316.245 295.084 316.213H224.793V316.211V316.211Z" fill="#E6E6E6"/>
<path d="M205.079 324.124C208.368 324.124 211.034 321.372 211.034 317.978C211.034 314.583 208.368 311.831 205.079 311.831C201.79 311.831 199.124 314.583 199.124 317.978C199.124 321.372 201.79 324.124 205.079 324.124Z" fill="#E6E6E6"/>
<path d="M304.115 274.035H189.279C188.105 274.034 187.153 273.052 187.152 271.84V242.437C187.154 241.226 188.105 240.244 189.279 240.242H304.115C305.289 240.244 306.24 241.226 306.242 242.437V271.841C306.24 273.052 305.289 274.034 304.115 274.036V274.035V274.035ZM189.279 241.12C188.574 241.121 188.003 241.71 188.003 242.437V271.841C188.003 272.568 188.574 273.157 189.279 273.158L291.07 272.122C291.775 272.122 302.456 268.01 302.456 267.283L305.391 242.437C305.39 241.71 304.82 241.121 304.115 241.12H189.279V241.12Z" fill="#E6E6E6"/>
<path d="M224.793 255.373C223.97 255.355 223.29 256.028 223.273 256.877C223.255 257.726 223.908 258.428 224.73 258.446C224.751 258.446 224.772 258.446 224.793 258.446H294.97C295.792 258.478 296.483 257.817 296.515 256.969C296.546 256.121 295.906 255.407 295.084 255.374H224.793V255.373V255.373Z" fill="#E6E6E6"/>
<path d="M205.079 263.286C208.368 263.286 211.034 260.534 211.034 257.139C211.034 253.745 208.368 250.993 205.079 250.993C201.79 250.993 199.124 253.745 199.124 257.139C199.124 260.534 201.79 263.286 205.079 263.286Z" fill="#E6E6E6"/>
<path d="M201.816 118.582C205.3 119.776 208.953 120.985 212.672 120.781C214.365 120.688 215.993 120.272 217.528 119.53C219.103 118.77 220.542 117.738 222.135 117.018C227.993 114.372 233.802 118.893 239.265 120.589C241.99 121.436 244.856 121.639 247.522 120.46C250.468 119.157 252.69 116.671 255.115 114.595C260.552 109.941 267.647 107.432 274.704 107.622C282.446 107.83 289.939 111.36 295.271 117.133C295.718 117.617 296.427 116.883 295.981 116.4C291.322 111.354 285.044 107.953 278.358 106.922C271.659 105.889 264.704 107.269 258.813 110.713C255.832 112.456 253.441 114.841 250.815 117.068C248.257 119.235 245.414 120.633 242.043 120.172C236.234 119.378 231.238 114.758 225.214 115.177C221.367 115.445 218.619 118.432 214.999 119.385C210.68 120.521 206.166 118.981 202.083 117.582C201.468 117.371 201.205 118.372 201.816 118.582L201.816 118.582V118.582Z" fill="#3F3D56"/>
<path d="M212.722 124.108C214.777 124.108 216.443 122.388 216.443 120.267C216.443 118.145 214.777 116.425 212.722 116.425C210.666 116.425 209 118.145 209 120.267C209 122.388 210.666 124.108 212.722 124.108Z" fill="#269E96"/>
<path d="M244.847 124.278C246.902 124.278 248.568 122.558 248.568 120.437C248.568 118.315 246.902 116.595 244.847 116.595C242.791 116.595 241.125 118.315 241.125 120.437C241.125 122.558 242.791 124.278 244.847 124.278Z" fill="#269E96"/>
<path d="M277.471 111.248C279.526 111.248 281.192 109.528 281.192 107.407C281.192 105.285 279.526 103.566 277.471 103.566C275.416 103.566 273.75 105.285 273.75 107.407C273.75 109.528 275.416 111.248 277.471 111.248Z" fill="#269E96"/>
<path d="M310.23 387.121H295.469C292.891 387.121 290.793 384.956 290.793 382.295C287.995 374.448 287.642 367.408 290.793 361.528C290.793 358.867 292.891 356.702 295.469 356.702C299.834 353.434 304.923 354.426 310.23 356.702C312.808 356.702 314.905 358.867 314.905 361.528C313.114 368.181 313.244 375.123 314.905 382.295C314.905 384.956 312.808 387.121 310.23 387.121Z" fill="#269E96"/>
<path d="M308.802 365.944H296.88C296.469 365.944 296.135 365.6 296.135 365.175C296.135 364.75 296.469 364.406 296.88 364.406H308.802C309.214 364.406 309.547 364.75 309.547 365.175C309.547 365.6 309.214 365.944 308.802 365.944Z" fill="white"/>
<path d="M308.802 372.096H296.88C296.469 372.096 296.135 371.752 296.135 371.327C296.135 370.902 296.469 370.558 296.88 370.558H308.802C309.214 370.558 309.547 370.902 309.547 371.327C309.547 371.752 309.214 372.096 308.802 372.096Z" fill="white"/>
<path d="M308.802 378.248H296.88C296.469 378.248 296.135 377.904 296.135 377.479C296.135 377.054 296.469 376.71 296.88 376.71H308.802C309.214 376.71 309.547 377.054 309.547 377.479C309.547 377.904 309.214 378.248 308.802 378.248Z" fill="white"/>
<path d="M570 415.081H0V416.244H570V415.081Z" fill="#E6E6E6"/>
</g>
<defs>
<clipPath id="clip0_4717_1152">
<rect width="570" height="410.054" fill="white" transform="translate(0 7.02942)"/>
</clipPath>
</defs>
</svg>
