<svg width="120" height="307" viewBox="0 0 120 307" fill="none" xmlns="http://www.w3.org/2000/svg">
<path d="M29.1989 263.482L38.0158 263.698L34.6855 291.403L28.7109 291.258L29.1989 263.482Z" fill="#FFB6B6"/>
<path d="M49.2087 304.124L49.2086 304.124C49.2086 303.371 48.8295 302.691 48.2438 302.392L41.6636 299.037L37.1774 288.297L37.1095 277.477L27.8651 276.355L26.5281 283.248C26.5281 283.248 29.2809 282.824 25.8823 285.869C22.4836 288.915 24.1201 294.873 24.1201 294.873L23.3789 306.01H29.4965L29.8249 299.084C34.583 301.168 35.75 306.01 35.75 306.01H47.6089C48.4924 306.01 49.2087 305.165 49.2087 304.124H49.2087H49.2087Z" fill="#2F2E41"/>
<path d="M42.1138 263.787L50.9307 264.002L47.6004 291.708L41.6259 291.563L42.1138 263.787Z" fill="#FFB6B6"/>
<path d="M62.1236 304.429H62.1236C62.1236 303.676 61.7444 302.996 61.1587 302.697L54.5786 299.342L50.0924 288.602L50.0244 277.782L40.78 276.66L39.4431 283.553C39.4431 283.553 42.1958 283.129 38.7972 286.174C35.3985 289.22 37.035 295.178 37.035 295.178L36.2938 306.315H42.4114L42.7398 299.389C47.4979 301.473 48.6649 306.315 48.6649 306.315H60.5238C61.4073 306.315 62.1236 305.47 62.1236 304.429L62.1236 304.429H62.1236Z" fill="#2F2E41"/>
<path d="M32.0025 101.278L22.0073 125.913C18.6754 134.124 17.6196 143.13 18.9575 151.925L23.8154 272.948H43.0222L51.4058 165.177L53.0602 207.748L33.8326 268.401H52.7436L77.0172 207.748L78.8168 161.044L70.1931 124.803L32.0025 101.278L32.0025 101.278Z" fill="#2F2E41"/>
<path d="M19.7263 132.36C8.72395 164.695 22.742 190.17 19.833 173.737C17.4018 160.003 58.8289 118.212 71.2988 126.829C71.0376 125.434 63.1115 100.29 62.3346 100.174C63.4216 97.3485 61.9066 97.3215 61.845 95.8738C61.6092 90.2823 62.8684 84.4777 65.3211 78.5038C66.9285 73.8884 66.9567 69.9229 65.3988 66.7254C64.0583 64.0974 61.8063 62.0883 59.0929 61.1L50.9216 50.9137C48.7931 48.2624 45.6539 42.5415 42.3184 42.563L24.4134 41.9028C23.9017 41.5854 17.6145 47.166 11.4928 49.9044C4.85331 52.8771 6.22302 60.9908 6.23974 61.0945L6.25515 61.1912L6.32816 61.2604L16.0874 90.9105L24.905 99.4405C24.4583 100.778 24.5701 101.781 25.4067 102.357C24.2058 103.274 18.8636 130.707 19.7263 131.668V132.36L19.7263 132.36Z" fill="#269E96"/>
<path d="M111.729 73.679C110.398 74.2274 109.213 75.0969 108.274 76.2148L94.0947 81.2319L96.605 88.126L110.718 82.2945C112.148 82.3977 113.581 82.146 114.898 81.5603C118.211 80.141 120.189 77.2263 119.313 75.0499C118.437 72.8736 115.043 72.2596 111.729 73.679V73.679V73.679Z" fill="#FFB6B6"/>
<path d="M36.0922 51.5539L68.4389 96.6226L106.355 85.8445L104.707 75.6348L75.8345 81.2796L59.7271 55.7192C54.4674 45.2246 44.1006 43.1112 36.0922 51.5532V51.5539V51.5539Z" fill="#269E96"/>
<path d="M46.49 38.0657L20.5971 40.4993L19.833 12.721L48.0415 11.8943L46.49 38.0657Z" fill="#2F2E41"/>
<path d="M33.3966 34.3371C40.9014 34.3371 46.9852 28.0574 46.9852 20.3109C46.9852 12.5644 40.9014 6.28467 33.3966 6.28467C25.8918 6.28467 19.808 12.5644 19.808 20.3109C19.808 28.0574 25.8918 34.3371 33.3966 34.3371Z" fill="#FFB6B6"/>
<path d="M44.3277 6.644C44.2319 3.16369 40.0365 2.78685 36.7676 1.92792L33.8035 0.340047C30.894 -0.424462 27.807 0.113233 25.3017 1.82091L17.3977 6.76336C13.8486 9.18241 13.2849 13.0924 11.8417 17.2219L9.22957 23.2667C7.80887 27.3318 9.68625 32.7182 11.1224 36.7775L11.7242 38.4785L10.7832 44.0455L27.2547 43.2514L28.7188 34.6574L25.9072 31.3951C24.9096 30.2375 24.8286 28.5188 25.7128 27.2668H25.7128C28.8933 22.7635 28.3038 16.4525 28.3038 16.4525L32.3289 18.7188C34.9736 19.0913 37.3304 19.0504 39.4041 18.6031C41.6847 18.1112 43.6229 17.1276 45.2247 15.6613L46.6598 20.6435C47.0294 26.8442 45.9069 28.49 40.5525 34.5553L49.9421 40.6401L49.5948 37.3473C48.7687 29.5142 51.2873 23.3373 50.9342 16.9621C50.6901 12.5538 48.1502 8.6262 44.3277 6.644H44.3277H44.3277Z" fill="#2F2E41"/>
<path d="M46.5768 124.914C45.2501 124.354 43.8127 124.129 42.3848 124.26L28.8107 117.698L25.9749 124.456L40.0495 130.385C41.0085 131.485 42.2087 132.332 43.5498 132.855C46.888 134.211 50.2725 133.533 51.1076 131.34C51.9427 129.146 49.915 126.27 46.5767 124.914H46.5768Z" fill="#FFB6B6"/>
<path d="M7.07875 54.7525L0 110.364L34.5226 129.809L40.2104 121.284L15.6473 104.635L21.2712 74.7003C24.5537 63.3807 18.5215 54.4253 7.07922 54.752L7.07875 54.7525V54.7525Z" fill="#269E96"/>
</svg>
