<svg width="109" height="331" viewBox="0 0 109 331" fill="none" xmlns="http://www.w3.org/2000/svg">
<path d="M104.179 307.146L96.2694 312.738L71.6082 283.911L83.2811 275.657L104.179 307.146Z" fill="#FFB6B6"/>
<path d="M76.9596 326.122C76.9975 326.724 77.7846 328.198 78.115 328.696C79.1306 330.226 81.1557 330.617 82.6382 329.568L107.13 312.248C108.142 311.533 108.4 310.107 107.707 309.063L107.008 308.011C107.008 308.011 106.12 303.99 101.038 301.855C101.038 301.855 99.9641 307.101 92.1577 305.595L89.096 304.006L84.1619 318.465L79.1429 323.037C78.0448 324.038 76.8648 324.613 76.9597 326.122L76.9596 326.122L76.9596 326.122V326.122Z" fill="#2F2E41"/>
<path d="M45.8671 321.991L36.2804 321.991L31.72 283.822L43.4544 285.33L45.8671 321.991Z" fill="#FFB6B6"/>
<path d="M13.0219 321.767C12.7234 322.286 12.5659 323.961 12.5659 324.564C12.5659 326.419 14.0226 327.923 15.8197 327.923H45.5084C46.7343 327.923 47.7282 326.897 47.7282 325.631V324.356C47.7282 324.356 49.1969 320.521 46.1731 315.795C46.1731 315.795 42.415 319.496 36.7994 313.699L35.1434 310.603L23.1564 319.652L16.5122 320.496C15.0585 320.68 13.7698 320.467 13.0221 321.767H13.0219V321.767Z" fill="#2F2E41"/>
<path d="M12.2553 176.94L12.9767 185.941L11.541 193.098L14.1552 200.644L17.353 240.542L34.0195 309.329L46.7452 312.094L40.6361 243.384L45.3749 186.709L12.2553 176.94V176.94Z" fill="#2F2E41"/>
<path d="M66.3327 137.865L17.6629 138.563L12.2551 176.938L45.3747 192.986L44.3182 247.793L81.2037 302.907L100.849 291.322L67.9303 244.517L77.1481 166.472L66.3326 137.865H66.3327V137.865Z" fill="#2F2E41"/>
<path d="M30.3048 47.6465L21.7183 59.0212L25.7744 146.238L57.5445 145.54L62.9523 69.4874L56.1929 49.9508L53.7469 45.5725L50.8218 39.9035L32.0681 41.2862L30.3048 47.6465H30.3048V47.6465Z" fill="#E6E6E6"/>
<path d="M17.6256 101.583L19.3426 119.408L17.2331 139.92L14.5962 145.481L8.5682 167.604C8.5682 167.604 2.41634 177.278 15.9357 177.974C29.4551 178.669 73.7679 174.143 73.7679 174.143C73.7679 174.143 79.2928 174.002 76.8851 162.073C72.9956 155.173 75.5034 145.451 75.5034 145.451L70.3883 125.999L71.7399 107.858L81.2038 60.4121C72.7989 53.5944 63.385 48.7148 53.151 45.41L44.1877 69.7384L30.8422 47.5034L25.7726 51.341C18.9348 53.1918 12.917 56.0379 8.15761 60.4114L17.6256 101.583V101.583Z" fill="#2F2E41"/>
<path d="M39.7727 39.0969C49.0386 39.0969 56.5501 31.3435 56.5501 21.7792C56.5501 12.2149 49.0386 4.46155 39.7727 4.46155C30.5068 4.46155 22.9954 12.2149 22.9954 21.7792C22.9954 31.3435 30.5068 39.0969 39.7727 39.0969Z" fill="#FFB6B6"/>
<path d="M52.0948 36.0082C53.019 36.1708 54.1039 33.8587 55.1406 31.6068C57.3109 26.8928 58.6905 23.8961 58.7955 19.6602C58.885 16.0501 57.9133 16.9976 56.968 8.97122C56.6563 6.32391 52.2747 6.329 51.3829 5.07193C49.8765 2.94854 52.1877 2.07282 48.44 0.797251C41.42 -1.59194 38.2456 2.11958 33.7875 2.43933C33.6748 2.44742 31.4647 4.67838 30.2304 4.79375C28.0678 4.99587 24.9481 4.64817 23.5495 1.24719C22.2417 -1.93278 21.3755 7.35973 22.5443 8.50973C23.5367 9.48612 25.2486 11.9368 25.2923 12.115C25.3418 12.3168 21.2218 7.60591 20.5341 9.54724C20.0391 10.9444 21.5971 18.1325 22.8557 18.4027C23.9082 18.6286 26.4822 15.0478 25.9014 16.5164C24.5546 19.9223 32.6533 22.0955 42.3485 15.2589C42.6923 15.0164 42.3675 15.4031 43.5668 18.4027C45.0793 22.1859 45.4206 22.3908 45.3942 23.4328C45.3371 25.6885 43.6963 26.3526 44.1759 27.8342C44.5644 29.0342 46.0824 29.9631 47.2217 29.7205C48.5072 29.4466 48.7277 27.805 49.6583 27.8342C50.4554 27.8592 51.4014 29.0985 51.4857 30.3493C51.6632 32.9843 47.8839 33.709 47.2217 37.2657C46.8479 39.273 51.2456 35.8587 52.0948 36.0082V36.0082Z" fill="#2F2E41"/>
<path d="M90.0628 174.434C90.1355 172.494 89.7572 170.565 88.9595 168.808L90.6874 148.598L81.344 148.031L80.5976 168.597C79.7161 170.311 79.245 172.218 79.224 174.159C79.1068 179.013 81.4381 183.011 84.4302 183.088C87.4223 183.165 89.9438 179.292 90.0612 174.438L90.0628 174.434V174.434Z" fill="#FFB6B6"/>
<path d="M70.1872 92.9386L77.5547 116.444L79.6699 164.452L92.0027 164.192L92.9595 111.605C92.9595 111.605 86.8131 72.7476 84.755 64.0139C82.6969 55.2803 63.7197 58.5169 63.7197 58.5169L70.1872 92.9386V92.9386V92.9386Z" fill="#2F2E41"/>
<path d="M7.64617 172.821C8.13067 177.651 10.9377 181.309 13.9148 180.99C16.8918 180.672 18.9134 176.499 18.4291 171.668C18.2612 169.735 17.6472 167.872 16.6386 166.234L14.3377 145.791L5.06567 147.11L8.31827 167.119C7.6561 168.935 7.42502 170.889 7.6442 172.816L7.64617 172.821V172.821Z" fill="#FFB6B6"/>
<path d="M21.2896 89.9676L25.1315 55.1296C25.1315 55.1296 5.96742 53.4334 4.57673 62.3064C3.18604 71.1794 0 110.414 0 110.414L4.93476 162.762L17.2496 162.027L15.724 113.996L21.2896 89.9676V89.9676V89.9676Z" fill="#2F2E41"/>
</svg>
